<?xml version="1.0" standalone="no"?>
<!DOCTYPE svg PUBLIC "-//W3C//DTD SVG 20010904//EN"
 "http://www.w3.org/TR/2001/REC-SVG-20010904/DTD/svg10.dtd">
<svg version="1.0" xmlns="http://www.w3.org/2000/svg"
 width="260.000000pt" height="260.000000pt" viewBox="0 0 260.000000 260.000000"
 preserveAspectRatio="xMidYMid meet">
<metadata>
Created by potrace 1.11, written by Peter Selinger 2001-2013
</metadata>
<g transform="translate(0.000000,260.000000) scale(0.100000,-0.100000)"
fill="#000000" stroke="none">
<path d="M1154 2523 c5 -10 -4 -13 -32 -13 -21 0 -42 -3 -45 -7 -4 -3 -21 -8
-39 -10 -18 -2 -36 -9 -40 -16 -6 -9 -8 -9 -8 0 0 9 -7 10 -25 3 -14 -5 -25
-6 -25 -2 0 4 -4 2 -8 -5 -4 -6 -20 -14 -36 -17 -15 -3 -34 -10 -41 -16 -8 -7
-19 -9 -25 -5 -5 3 -10 2 -10 -3 0 -6 -23 -18 -51 -28 -28 -11 -54 -24 -56
-31 -3 -7 -9 -11 -13 -8 -9 5 -99 -51 -112 -69 -4 -6 -8 -7 -8 -3 0 5 -6 2
-14 -5 -7 -7 -36 -31 -64 -53 -28 -22 -51 -46 -52 -54 0 -8 -3 -11 -7 -8 -6 7
-113 -101 -113 -114 0 -4 -13 -21 -29 -38 -16 -17 -36 -45 -43 -61 -7 -17 -16
-30 -20 -30 -5 0 -8 -5 -8 -11 0 -6 -9 -23 -20 -39 -11 -15 -17 -30 -13 -34 3
-3 1 -6 -5 -6 -7 0 -12 -9 -12 -20 0 -11 -4 -20 -9 -20 -5 0 -12 -7 -15 -16
-4 -10 -2 -13 7 -9 6 4 5 1 -3 -7 -8 -7 -15 -17 -16 -23 0 -5 -5 -22 -12 -38
-6 -15 -14 -38 -16 -50 -10 -45 -34 -126 -41 -138 -6 -8 -4 -10 5 -4 10 6 11
4 4 -6 -11 -18 -14 -35 -15 -76 -1 -19 -5 -30 -11 -27 -6 4 -6 -1 1 -13 7 -14
7 -23 -1 -31 -9 -9 -9 -12 1 -12 10 0 11 -3 2 -14 -12 -14 -12 -98 0 -91 4 3
6 -3 4 -12 -2 -10 -4 -18 -5 -18 -1 0 -3 -8 -5 -18 -2 -9 1 -15 6 -11 13 8 11
-10 -3 -25 -10 -11 -10 -13 -1 -7 9 5 13 -2 14 -23 2 -39 3 -43 12 -59 5 -7 3
-12 -5 -12 -8 0 -9 -3 -3 -8 6 -4 12 -20 13 -36 1 -17 6 -32 11 -35 4 -3 7
-14 5 -24 -1 -9 3 -17 9 -17 8 0 7 -4 -2 -9 -11 -7 -10 -11 5 -20 11 -6 16
-11 12 -11 -15 0 55 -162 95 -222 10 -16 15 -28 11 -28 -4 0 1 -7 12 -15 10
-8 15 -15 9 -15 -6 0 -6 -3 1 -8 6 -4 25 -29 43 -56 46 -66 237 -256 259 -256
5 0 12 -7 16 -15 3 -8 12 -15 21 -15 8 0 15 -4 15 -10 0 -5 7 -10 15 -10 8 0
15 -5 15 -12 0 -6 3 -8 7 -5 3 4 12 -1 20 -11 8 -9 11 -11 8 -4 -6 11 -3 11
14 0 12 -7 21 -16 21 -21 0 -4 5 -5 10 -2 6 3 10 1 10 -5 0 -7 7 -10 15 -6 8
3 15 2 15 -2 0 -8 89 -48 120 -54 8 -2 17 -6 20 -10 4 -4 23 -9 43 -10 20 -2
37 -6 37 -9 0 -4 7 -10 16 -13 10 -4 13 -2 8 7 -5 8 -2 7 9 -2 10 -8 38 -15
64 -17 25 -2 51 -8 58 -14 8 -6 16 -5 25 3 10 9 11 9 6 0 -5 -9 25 -12 128
-11 97 0 134 4 129 12 -4 6 2 4 12 -4 11 -9 16 -10 11 -2 -5 9 4 12 36 12 24
0 50 6 57 13 11 10 12 9 6 -3 -8 -13 -7 -13 8 -1 9 7 17 10 17 5 0 -4 5 -3 11
3 6 6 18 9 25 6 8 -3 14 0 14 7 0 7 6 10 14 7 7 -3 25 1 40 8 14 8 26 11 26 8
0 -3 7 1 17 8 9 8 18 13 20 11 7 -6 73 22 73 32 0 5 3 7 6 3 9 -9 160 76 181
103 7 8 13 11 13 7 0 -8 14 2 53 38 12 11 25 19 30 17 4 -1 7 2 7 8 0 5 19 23
42 40 22 16 37 30 32 30 -5 0 3 11 19 24 15 13 27 26 27 29 0 3 10 17 23 30
53 58 67 75 67 85 0 5 7 15 15 22 9 7 13 15 11 18 -3 2 5 13 17 24 12 11 15
17 7 13 -8 -4 -6 1 4 9 11 9 16 16 12 16 -5 0 -3 7 4 15 7 8 9 15 6 15 -4 0 0
7 8 16 9 8 14 20 11 25 -4 5 -2 9 4 9 9 0 37 68 33 83 -1 4 3 7 9 7 6 0 9 6 6
14 -3 8 -2 16 3 18 5 2 11 18 13 36 2 17 7 35 10 39 4 3 7 17 7 29 0 13 4 25
8 28 8 5 13 42 13 89 0 9 5 15 11 11 6 -4 6 1 -1 14 -6 12 -7 23 -2 26 4 3 9
57 9 121 1 87 -2 114 -11 108 -7 -4 -6 0 2 10 11 14 11 17 0 17 -11 0 -11 2 1
10 13 9 13 10 0 10 -13 0 -13 1 0 10 10 6 11 10 3 10 -8 0 -13 14 -13 36 0 23
-4 33 -11 28 -8 -4 -8 0 0 15 9 16 9 21 0 21 -6 0 -9 7 -6 15 4 8 2 17 -4 20
-5 4 -7 11 -4 16 4 5 2 9 -2 9 -5 0 -10 9 -11 20 -4 44 -6 50 -14 50 -5 0 -7
4 -3 9 3 5 1 12 -5 16 -6 4 -8 11 -5 16 4 5 2 9 -4 9 -6 0 -8 7 -5 15 4 8 1
15 -6 15 -6 0 -8 5 -5 10 3 6 1 10 -4 10 -6 0 -10 4 -8 8 3 9 -45 106 -55 110
-5 2 -8 10 -8 18 0 8 -4 14 -10 14 -5 0 -10 7 -10 15 0 8 -5 15 -12 15 -6 0
-9 3 -5 6 3 4 1 12 -6 19 -7 8 -21 25 -32 40 -11 14 -32 39 -47 55 -14 16 -25
30 -23 32 2 2 -3 9 -11 16 -8 7 -14 9 -14 5 0 -4 -9 6 -20 22 -11 17 -20 27
-20 23 0 -3 -16 9 -35 28 -20 19 -40 34 -46 34 -5 0 -7 5 -4 10 3 6 -1 10 -9
10 -9 0 -16 5 -16 12 0 6 -3 9 -6 5 -6 -5 -13 -1 -47 29 -7 5 -32 21 -57 35
-25 13 -46 27 -48 32 -2 4 -12 7 -23 7 -10 0 -19 5 -19 10 0 6 -9 10 -19 10
-11 0 -23 5 -26 10 -3 6 -15 10 -26 10 -10 0 -19 5 -19 11 0 5 -4 8 -9 4 -5
-3 -12 -1 -15 4 -4 5 -14 8 -24 7 -9 -2 -19 0 -22 4 -3 5 -16 10 -30 11 -14 2
-28 8 -31 12 -4 5 -26 11 -50 13 -24 2 -57 6 -74 10 -16 3 -38 5 -48 5 -11 0
-15 5 -10 12 4 7 0 6 -10 -2 -14 -11 -17 -11 -17 0 0 11 -2 11 -10 -1 -8 -12
-10 -12 -10 -1 0 11 -3 11 -15 1 -12 -10 -15 -10 -15 1 0 12 -2 12 -9 0 -7
-11 -9 -11 -13 0 -4 12 -8 11 -23 -1 -10 -8 -16 -10 -12 -4 4 7 -2 12 -18 12
-14 0 -22 -4 -20 -8 6 -10 -15 -7 -32 3 -8 5 -13 3 -13 -4 0 -8 -5 -7 -17 2
-11 10 -14 10 -9 2 4 -7 3 -13 -1 -13 -5 0 -15 6 -22 13 -11 10 -13 10 -7 0z"/>
</g>
</svg>
